# xmcd CD database file
# Copyright (C) 1995-1998 Ti Kan
#
# Track frame offsets:
#	150
#	20200
#	36742
#	59040
#	75307
#	92822
#	115180
#	135845
#	153212
#	182775
#	202987
#
# Disc length: 2863 seconds
#
# Revision: 2
# Processed by: cddbd v1.4PL0 Copyright (c) Steve Scherf et al.
# Submitted via: CDex 1.30Release
#
DISCID=900b2d0b
DTITLE=Becky Barksdale - Real Live
DYEAR=1900
DGENRE=Blues
TTITLE0=Satisfy Me
TTITLE1=Little Bit Wild
TTITLE2=Bigger Than The Moon
TTITLE3=Wrap Me Up
TTITLE4=I Wish
TTITLE5=I Just Want To Make Love To You
TTITLE6=Fun
TTITLE7=Going Back To Texas
TTITLE8=Handle With Care
TTITLE9=Close To You
TTITLE10=Nuthin' Like You (A Tribute To Jimi)
EXTD=ID3G:   0
EXTT0=
EXTT1=
EXTT2=
EXTT3=
EXTT4=
EXTT5=
EXTT6=
EXTT7=
EXTT8=
EXTT9=
EXTT10=
PLAYORDER=
